# xmcd
#
# Track frame offsets:
#	150
#	18338
#	33199
#	54319
#	74257
#	92234
#	108571
#	126024
#	144209
#	164256
#	182444
#	197305
#	218426
#	238359
#	256390
#	272565
#	290011
#	308198
#
# Disc length: 4374 seconds
#
# Revision: 1
# Processed by: cddbd v1.5.2PL0 Copyright (c) Steve Scherf et al.
# Submitted via: audiograbber 1.83.01
#
DISCID=f8111412
DTITLE=Various Artist - PSCDG 1569
DYEAR=1900
DGENRE=Country
TTITLE0=I Breathe In, I Breathe Out
TTITLE1=She Was
TTITLE2=I Keep Looking
TTITLE3=The Edge of Forever
TTITLE4=That's Just Jessie
TTITLE5=What If She's An Angel
TTITLE6=Designated Drinker
TTITLE7=Drive (For Daddy Gene)
TTITLE8=Mendocino County Line
TTITLE9=I Breathe In, I Breathe Out
TTITLE10=She Was
TTITLE11=I Keep Looking
TTITLE12=The Edge of Forever
TTITLE13=That's Just Jessie
TTITLE14=What If She's An Angel
TTITLE15=Designated Drinker
TTITLE16=Drive (For Daddy Gene)
TTITLE17=Mendocino County Line
EXTD=
EXTT0=
EXTT1=
EXTT2=
EXTT3=
EXTT4=
EXTT5=
EXTT6=
EXTT7=
EXTT8=
EXTT9=With Vocals
EXTT10=With Vocals
EXTT11=With Vocals
EXTT12=With Vocals
EXTT13=With Vocals
EXTT14=With Vocals
EXTT15=With Vocals
EXTT16=With Vocals
EXTT17=With Vocals
PLAYORDER=
